# xmcd
#
# Track frame offsets:
#	150
#	19205
#	39824
#	61423
#	80719
#	104351
#	120375
#	137414
#	152854
#	177408
#	190724
#	210572
#	230162
#	250177
#	269365
#	286145
#	304994
#
# Disc length: 4389 seconds
#
# Revision: 1
# Processed by: cddbd v1.5.2PL0 Copyright (c) Steve Scherf et al.
# Submitted via: audiograbber 1.83.01
#
DISCID=eb112311
DTITLE=Caxton Street Jazz Band - It's About Time...2
DYEAR=2007
DGENRE=Jazz
TTITLE0=What-Cha-Call-Em Blues
TTITLE1=My Man
TTITLE2=Frolic Sam
TTITLE3=Rhythm King
TTITLE4=Jungle Jive
TTITLE5=Chimes Blues
TTITLE6=Flatfoot
TTITLE7=As - Tu Le Cafard
TTITLE8=Blame It On The Blues
TTITLE9=Mind Your Own Business
TTITLE10=Swingin' The Blues
TTITLE11=The Mooche
TTITLE12=On The Day I Let You Get Away
TTITLE13=Tia Juana
TTITLE14=Knockabout Troll
TTITLE15=Coal Cart Blues
TTITLE16=Take Me Home Precious Lord
EXTD=
EXTT0=
EXTT1=
EXTT2=
EXTT3=
EXTT4=
EXTT5=
EXTT6=
EXTT7=
EXTT8=
EXTT9=
EXTT10=
EXTT11=
EXTT12=
EXTT13=
EXTT14=
EXTT15=
EXTT16=
PLAYORDER=
